<?xml version="1.0" encoding="UTF-8"?>
<svg id="Layer_1" xmlns="http://www.w3.org/2000/svg" version="1.1" viewBox="0 0 1500 828.57">
  <!-- Generator: Adobe Illustrator 29.4.0, SVG Export Plug-In . SVG Version: 2.1.0 Build 152)  -->
  <defs>
    <style>
      .st0 {
        fill: #3e1492;
      }

      .st1 {
        fill: #feda02;
      }
    </style>
  </defs>
  <g>
    <path class="st0" d="M728.73,550.82h-133.08c-47.97,0-89.7,30.08-105.63,73.82h225.7l13.02-73.82Z"/>
    <path class="st0" d="M990.12,432.06c-5.44-31.23-22.57-57.55-48.22-74.13-19-12.28-42.2-18.77-67.11-18.77l-179.2-.52-13.11,74.34h173.59c18.81,0,35.4,7.44,46.74,20.95,11.52,13.73,16.01,31.77,12.65,50.8-6.52,36.96-40.59,65.94-77.66,66.09h-93.49l-13.02,73.82h87.45c80.15,0,156.88-65.3,171.03-145.57,2.85-16.16,2.97-31.98.34-47.01Z"/>
    <path class="st0" d="M698.06,200.76h256.71c47.97,0,89.7-30.08,105.63-73.82h-343.3c-80.15,0-156.88,65.3-171.03,145.57-8.94,50.7,8.96,95.99,47.88,121.14,19,12.28,42.2,18.77,67.07,18.77h5.97l13.02-73.82h-.23c-18.8,0-35.4-7.44-46.74-20.95-11.35-13.53-15.96-32.04-12.65-50.8,6.52-36.97,40.6-65.95,77.67-66.1Z"/>
  </g>
  <path class="st1" d="M843.74,445.16h-94.54l40.81-231.42h-73.82l-92.04,521.97c19.43-2.97,37.74-11.14,52.74-23.73,19.12-16.04,32.07-38.6,36.46-63.51l22.83-129.5h94.54c20.38,0,39.82-16.53,43.42-36.91,3.59-20.39-10.02-36.91-30.4-36.91Z"/>
</svg>